<svg width="60" height="60" viewBox="0 0 60 60" fill="none" xmlns="http://www.w3.org/2000/svg">
<path d="M29.9062 1.14844C32.5547 1.14844 34.7109 3.30469 34.7109 5.95313C34.7109 8.60156 32.5547 10.7578 29.9062 10.7578C27.2578 10.7578 25.1016 8.60156 25.1016 5.95313C25.1016 3.30469 27.2578 1.14844 29.9062 1.14844ZM35.9531 12H23.9531C20.625 12 17.9531 14.6719 17.9531 18V32.6719C17.9531 33.8203 18.8672 34.7813 20.0625 34.7813C21.2578 34.7813 22.1719 33.8672 22.1719 32.6719V19.1953C22.1719 18.8672 22.4531 18.5859 22.7813 18.5859C23.1094 18.5859 23.3906 18.8672 23.3906 19.1953V55.5703C23.3906 57.375 24.7266 58.8516 26.3906 58.8516C28.0547 58.8516 29.3906 57.375 29.3906 55.5703V34.8281C29.3906 34.5 29.6719 34.2188 30 34.2188C30.3281 34.2188 30.6094 34.5 30.6094 34.8281V55.5703C30.6094 57.375 31.9453 58.8516 33.6094 58.8516C35.2734 58.8516 36.6094 57.375 36.6094 55.5703V19.1953C36.6094 18.8672 36.8906 18.5859 37.2188 18.5859C37.5469 18.5859 37.8281 18.8672 37.8281 19.1953V32.6953C37.8281 33.8438 38.7422 34.8047 39.9375 34.8047C41.1328 34.8047 42.0469 33.8906 42.0469 32.6953V18C41.9531 14.6719 39.2109 12 35.9531 12Z" fill="#AEAEAE"/>
</svg>
