<svg width="60" height="60" viewBox="0 0 60 60" fill="none" xmlns="http://www.w3.org/2000/svg">
<path d="M52.5 46.3603L46.8965 49.8426L40.1725 35.9141H26.7243M26.7243 35.9141H24.4828L20 17.3425H24.4828L25.1052 22.5001M26.7243 35.9141L25.1052 22.5001M25.1052 22.5001H35" stroke="#AEAEAE" stroke-width="2" stroke-linecap="round" stroke-linejoin="round"/>
<path fill-rule="evenodd" clip-rule="evenodd" d="M40.215 46.7592C39.0173 45.5615 36.933 46.0175 35.8908 47.3527C33.7535 50.0912 30.4218 51.8517 26.679 51.8517C20.2288 51.8517 15 46.623 15 40.173C15 37.1452 16.1522 34.3865 18.0421 32.3115C18.7686 31.5137 19.1359 30.4137 18.8259 29.3802C18.3214 27.6985 16.3425 26.9657 15.0807 28.1867C11.9477 31.219 10 35.4685 10 40.173C10 49.3845 17.4674 56.8517 26.679 56.8517C32.461 56.8517 37.5557 53.9097 40.548 49.4407C41.1145 48.5947 40.935 47.4792 40.215 46.7592Z" fill="#AEAEAE"/>
<path d="M25.625 7.5C25.625 9.22587 24.2259 10.625 22.5 10.625C20.7741 10.625 19.375 9.22587 19.375 7.5C19.375 5.7741 20.7741 4.375 22.5 4.375C24.2259 4.375 25.625 5.7741 25.625 7.5Z" fill="#AEAEAE" stroke="#AEAEAE" stroke-width="2"/>
</svg>
