<svg width="60" height="60" viewBox="0 0 60 60" fill="none" xmlns="http://www.w3.org/2000/svg">
<path d="M39.375 7.5C39.375 11.6426 36.0176 15 31.875 15C27.7324 15 24.375 11.6426 24.375 7.5C24.375 3.35742 27.7324 0 31.875 0C36.0176 0 39.375 3.35742 39.375 7.5ZM38.052 31.0816C39.2895 29.8055 41.3484 29.5547 42.7371 30.7395C44.3145 32.0848 44.3965 34.5012 42.9832 35.9602L38.1246 40.9781C38.051 41.0548 37.9627 41.1159 37.8649 41.1575C37.7672 41.1992 37.662 41.2207 37.5557 41.2207C37.4494 41.2207 37.3442 41.1992 37.2464 41.1575C37.1486 41.1159 37.0603 41.0548 36.9867 40.9781L32.127 35.9602C30.7148 34.5023 30.7992 32.0848 32.3766 30.7395C33.7523 29.5664 35.7984 29.7809 37.0617 31.0816L37.5563 31.5914L38.052 31.0816ZM19.2059 19.4566L11.7094 31.1543C10.8609 32.4867 11.2207 34.2762 12.5133 35.1516C13.8059 36.0258 15.5426 35.6555 16.391 34.323C18.5004 31.0324 20.6086 27.7406 22.7168 24.45C23.3871 23.4035 24.0738 22.9219 24.8039 22.8445C25.0301 24.273 25.2469 25.698 25.4039 27.1535V29.932C24.3422 34.5445 23.3555 39.2941 22.1941 43.8691C21.9516 44.8125 21.7547 45.5754 22.5762 46.377C23.0121 46.8012 23.4856 46.8844 24.0797 46.8844L26.25 46.875V56.25C26.25 58.3641 27.8977 60 30 60H33.75C35.9063 59.9906 37.5 58.3969 37.5 56.25V46.875H43.125C44.3566 46.875 45.1734 46.2457 45.1734 44.9707V43.0957C47.7633 41.1773 48.9234 38.7891 48.9234 35.5957C48.9234 29.0168 45 26.25 41.25 24.375C40.2305 23.8652 38.1234 22.1508 37.5 20.625C36.6152 18.4594 36.8133 16.875 34.2856 16.875H25.4039C23.2594 16.875 20.4152 17.557 19.2059 19.4566Z" fill="#AEAEAE"/>
</svg>
