<svg width="34" height="44" viewBox="0 0 34 44" fill="none" xmlns="http://www.w3.org/2000/svg">
<path d="M25.1004 38.5847L10.2073 38.5843M25.1004 38.5847L26.2965 38.5843C27.9614 38.5843 28.7939 38.5843 29.4305 38.2485C29.9909 37.953 30.4478 37.4808 30.7333 36.9006C31.0577 36.2416 31.0577 35.3788 31.0577 33.6552V20.4205C31.0577 19.7285 31.0577 19.3808 30.9864 19.0506C30.9229 18.756 30.8184 18.4731 30.6752 18.2101C30.5165 17.9184 30.2937 17.6621 29.8557 17.1583L25.7523 12.4381C25.2447 11.8542 24.9875 11.5583 24.6787 11.3458C24.4009 11.1546 24.0939 11.0136 23.7709 10.9277C23.4063 10.8308 23.0151 10.8308 22.2335 10.8308H9.01611C7.34791 10.8308 6.5132 10.8308 5.87604 11.1669C5.31556 11.4626 4.86022 11.934 4.57466 12.5142C4.25 13.1739 4.25 14.038 4.25 15.7651V33.6507C4.25 35.3777 4.25 36.2401 4.57466 36.8997C4.86022 37.4799 5.31556 37.953 5.87604 38.2485C6.51257 38.5843 7.34627 38.5843 9.01121 38.5843H10.2073M25.1004 38.5847V32.7205C25.1004 30.9968 25.1004 30.1337 24.7761 29.4747C24.4906 28.8945 24.0336 28.423 23.4732 28.1274C22.8361 27.7913 22.0031 27.7913 20.3349 27.7913H14.9734C13.3052 27.7913 12.4705 27.7913 11.8333 28.1274C11.2728 28.423 10.8175 28.8945 10.5319 29.4747C10.2073 30.1343 10.2073 30.9985 10.2073 32.7256V38.5843M22.1218 16.9983H13.1859" stroke="#122083" stroke-width="2" stroke-linecap="round" stroke-linejoin="round"/>
</svg>
