<svg width="280" height="280" viewBox="0 0 280 280" fill="none" xmlns="http://www.w3.org/2000/svg">
<g clip-path="url(#clip0_105_530)">
<path d="M6.9043 122.181V235.452H34.0202V123.001C34.0202 122.659 34.0658 122.318 34.1569 122.021C38.623 100.374 47.2363 86.5202 58.9941 78.5905C70.8431 70.5924 85.6999 68.7695 102.585 71.2077C104.476 71.4811 105.775 73.2129 105.524 75.1042C105.456 75.5599 105.319 75.97 105.114 76.3346C98.2552 88.2975 95.2702 100.329 96.4095 112.406C97.5716 124.574 102.926 136.924 112.725 149.502C113.636 150.664 113.682 152.214 112.975 153.398C112.041 154.971 111.608 156.543 111.654 158.161C111.722 159.801 112.269 161.556 113.34 163.447L119.469 170.465C120.085 171.058 120.677 171.377 121.27 171.377C122.113 171.354 123.184 170.853 124.528 169.782L222.396 70.8659C223.034 70.0911 223.307 69.5215 223.262 69.1341C223.193 68.6784 222.738 68.1087 221.895 67.4251C221.712 67.2656 221.53 67.1061 221.393 66.9238L220.915 66.3314C220.869 66.263 220.824 66.1946 220.778 66.1491C215.469 59.6549 214.466 58.5612 204.44 60.2246C203.483 60.3841 202.572 60.1335 201.842 59.6322C188.604 51.0189 175.729 45.9603 163.265 44.7754C150.915 43.5905 138.838 46.2337 127.103 52.9557C126.077 53.5482 124.87 53.5482 123.867 53.0697C113.545 48.8542 103.519 46.2793 93.9258 45.2311C75.765 43.2487 59.2448 46.7122 45.5957 54.8242C31.9466 62.9362 21.0775 75.7194 14.2415 92.3535C10.6413 101.126 8.15755 110.993 6.97266 121.816C6.94987 121.93 6.94987 122.044 6.9043 122.181ZM184.342 147.747L184.684 147.223C186.484 144.648 190.107 144.033 192.682 145.856L226.885 169.736C229.46 171.536 230.075 175.159 228.252 177.734L227.91 178.258C226.11 180.833 222.487 181.449 219.912 179.626L185.71 155.723C183.135 153.923 182.542 150.322 184.342 147.747ZM154.014 170.693L154.355 170.169C156.156 167.594 159.779 166.979 162.354 168.802L196.556 192.682C199.131 194.482 199.746 198.105 197.923 200.68L197.581 201.204C195.781 203.779 192.158 204.395 189.583 202.572L155.381 178.669C152.806 176.868 152.214 173.268 154.014 170.693ZM209.613 123.001L209.954 122.477C211.755 119.902 215.378 119.287 217.952 121.11L252.155 144.99C254.73 146.79 255.345 150.413 253.522 152.988L253.18 153.512C251.38 156.087 247.757 156.702 245.182 154.88L210.98 130.977C208.405 129.176 207.812 125.576 209.613 123.001ZM235.042 97.4577L235.384 96.9336C237.184 94.3587 240.807 93.7435 243.382 95.5664L277.585 119.447C280.159 121.247 280.775 124.87 278.952 127.445L278.61 127.969C276.81 130.544 273.187 131.159 270.612 129.336L236.41 105.456C233.835 103.656 233.242 100.055 235.042 97.4577ZM0 238.916V121.52C0 121.133 0.0683594 120.745 0.182292 120.381C1.48112 109.17 4.10156 98.8932 7.86133 89.6875C15.2669 71.6178 27.1159 57.7181 42.0638 48.8314C56.9889 39.9674 74.9674 36.1621 94.6549 38.304C104.453 39.375 114.661 41.9271 125.143 46.097C137.699 39.2611 150.618 36.595 163.903 37.8711C177.21 39.1471 190.768 44.3424 204.6 53.1836C217.337 51.1784 218.841 52.9101 226.087 61.7513C226.133 61.8197 226.201 61.8652 226.247 61.9336L226.543 62.2754C228.594 64.0299 229.824 65.9896 230.098 68.1999C230.417 70.5924 229.619 72.9622 227.637 75.332C227.568 75.4004 227.5 75.4687 227.432 75.5599L129.29 174.749C129.199 174.84 129.108 174.909 129.017 175C126.328 177.187 123.799 178.213 121.383 178.258C118.74 178.304 116.462 177.233 114.502 175.273C114.456 175.228 114.411 175.159 114.342 175.114L107.894 167.731C107.757 167.572 107.62 167.389 107.507 167.207C105.752 164.222 104.818 161.283 104.704 158.411C104.613 156.201 105.023 154.059 105.889 152.008C96.0905 138.952 90.7129 125.986 89.4824 113.066C88.3431 101.058 90.7812 89.1862 96.6146 77.4512C83.444 76.2435 71.9596 78.1348 62.7995 84.3099C52.5456 91.237 44.9577 103.656 40.8789 123.298V238.916C40.8789 240.83 39.3294 242.38 37.4154 242.38H3.46354C1.54948 242.38 0 240.83 0 238.916Z" fill="black"/>
</g>
<defs>
<clipPath id="clip0_105_530">
<rect width="280" height="280" fill="white"/>
</clipPath>
</defs>
</svg>
