<svg width="13" height="13" viewBox="0 0 13 13" fill="none" xmlns="http://www.w3.org/2000/svg">
<path d="M10.9266 5.86694H2.07379C1.31966 5.86694 0.706299 6.48038 0.706299 7.23453V8.50112V8.90676L1.10762 8.96419C1.33957 8.99746 1.51463 9.19926 1.51463 9.43349C1.51463 9.66772 1.33967 9.86952 1.10783 9.90276L0.706299 9.96019V10.3659V11.6327C0.706299 12.3866 1.31966 13.0001 2.07379 13.0001H10.9266C11.6807 13.0001 12.2941 12.3866 12.2941 11.6327V10.3744V9.92779L11.848 9.90692C11.5946 9.89517 11.3959 9.68717 11.3959 9.43351C11.3959 9.18006 11.5946 8.97206 11.8482 8.96008L12.2941 8.93901V8.49264V7.23453C12.2941 6.48038 11.6807 5.86694 10.9266 5.86694ZM11.8261 8.49264C11.3263 8.5164 10.928 8.92783 10.928 9.43351C10.928 9.93937 11.3263 10.351 11.8261 10.3744V11.6327C11.8261 12.1294 11.4233 12.5322 10.9266 12.5322H2.07379C1.57692 12.5322 1.17415 12.1294 1.17415 11.6327V10.3659C1.63095 10.3004 1.98248 9.90857 1.98248 9.43349C1.98248 8.95861 1.63092 8.56678 1.17415 8.50112V7.23453C1.17415 6.73756 1.57692 6.33479 2.07379 6.33479H10.9266C11.4233 6.33479 11.8261 6.73756 11.8261 7.23453V8.49264Z" fill="#122083"/>
<path d="M3.70227 11.1571H3.39276V11.9645H3.70227V11.1571Z" fill="#122083"/>
<path d="M3.70227 9.73889H3.39276V10.5461H3.70227V9.73889Z" fill="#122083"/>
<path d="M3.70227 8.32056H3.39276V9.12798H3.70227V8.32056Z" fill="#122083"/>
<path d="M3.70227 6.90234H3.39276V7.70974H3.70227V6.90234Z" fill="#122083"/>
<path d="M2.82462 4.5896L2.55414 4.73996L2.9467 5.44534L3.21709 5.29498L2.82462 4.5896Z" fill="#122083"/>
<path d="M12.6325 4.54556L12.0207 3.44586L11.8034 3.05586L11.4035 3.25457C11.1763 3.36736 10.9016 3.28225 10.7785 3.06061C10.655 2.83918 10.7277 2.56075 10.9433 2.42712L11.323 2.19185L11.1057 1.80164L10.4941 0.702381C10.1274 0.0435201 9.29317 -0.194441 8.63406 0.172403L0.89822 4.47634C0.239206 4.84298 0.00147404 5.67744 0.368115 6.33636L0.390331 6.37642C0.473359 6.21408 0.578984 6.06557 0.703246 5.9344C0.581294 5.53721 0.747984 5.09539 1.12564 4.88511L8.86168 0.581141C9.29587 0.339473 9.84364 0.495625 10.0853 0.929805L10.6969 2.02927C10.2716 2.29282 10.1237 2.84639 10.3695 3.28819C10.6153 3.73001 11.1635 3.89609 11.6117 3.67341L12.2235 4.77313C12.4082 5.10463 12.359 5.50164 12.1329 5.77863C12.2541 5.8792 12.3611 5.99592 12.4541 6.12315C12.8325 5.7008 12.9233 5.06835 12.6325 4.54556Z" fill="#122083"/>
</svg>
