<svg width="24" height="34" viewBox="0 0 24 34" fill="none" xmlns="http://www.w3.org/2000/svg">
<path fill-rule="evenodd" clip-rule="evenodd" d="M12 3.125C8.89339 3.125 6.375 5.64339 6.375 8.75C6.375 11.8566 8.89339 14.375 12 14.375C15.1067 14.375 17.625 11.8566 17.625 8.75C17.625 5.64339 15.1067 3.125 12 3.125ZM4.125 8.75C4.125 4.40075 7.65075 0.875 12 0.875C16.3492 0.875 19.875 4.40075 19.875 8.75C19.875 13.0992 16.3492 16.625 12 16.625C7.65075 16.625 4.125 13.0992 4.125 8.75Z" fill="#122083" fill-opacity="0.5"/>
<path fill-rule="evenodd" clip-rule="evenodd" d="M0.375 26.8571C0.375 22.4487 3.94874 18.875 8.35715 18.875H15.6429C20.0513 18.875 23.625 22.4487 23.625 26.8571C23.625 30.3188 20.8188 33.125 17.3571 33.125H6.64285C3.18121 33.125 0.375 30.3188 0.375 26.8571ZM8.35715 21.125C5.19137 21.125 2.625 23.6913 2.625 26.8571C2.625 29.0762 4.42386 30.875 6.64285 30.875H17.3571C19.5762 30.875 21.375 29.0762 21.375 26.8571C21.375 23.6913 18.8087 21.125 15.6429 21.125H8.35715Z" fill="#122083"/>
</svg>
