<svg width="16" height="16" viewBox="0 0 16 16" fill="none" xmlns="http://www.w3.org/2000/svg">
<path d="M4.69416 9.79969H3.36008C3.09496 9.79969 2.88008 9.58478 2.88008 9.31969V1.12C2.88008 0.854813 3.09489 0.64 3.36008 0.64H12.6401C12.9052 0.64 13.1201 0.854875 13.1201 1.12V9.31969C13.1201 9.58472 12.9051 9.79969 12.6401 9.79969H10.9474C10.7707 9.79969 10.6274 9.94295 10.6274 10.1197C10.6274 10.2964 10.7707 10.4397 10.9474 10.4397H12.6401C13.2586 10.4397 13.7601 9.93817 13.7601 9.31969V1.12C13.7601 0.501391 13.2586 0 12.6401 0H3.36008C2.74143 0 2.24008 0.501344 2.24008 1.12V9.31969C2.24008 9.93822 2.74147 10.4397 3.36008 10.4397H4.69416C4.87089 10.4397 5.01416 10.2964 5.01416 10.1197C5.01416 9.94295 4.87089 9.79969 4.69416 9.79969Z" fill="#122083"/>
<path d="M4.61843 5.53819H11.3816C11.5584 5.53819 11.7016 5.39493 11.7016 5.21819C11.7016 5.04146 11.5584 4.89819 11.3816 4.89819H4.61843C4.4417 4.89819 4.29843 5.04146 4.29843 5.21819C4.29843 5.39493 4.4417 5.53819 4.61843 5.53819Z" fill="#122083"/>
<path d="M10.8877 7.97998C10.711 7.97998 10.5677 8.12324 10.5677 8.29998C10.5677 8.47671 10.711 8.61998 10.8877 8.61998H11.3844C11.8796 8.61998 12.1631 8.1847 11.9632 7.73173L10.7971 5.09073C10.7257 4.92906 10.5368 4.85587 10.3751 4.92724C10.2134 4.99862 10.1402 5.18756 10.2116 5.34923L11.3732 7.97998H10.8877ZM5.78837 5.34923C5.85976 5.18756 5.78655 4.99862 5.62488 4.92724C5.46321 4.85587 5.27427 4.92906 5.2029 5.09073L4.03682 7.73168C3.83688 8.1847 4.12043 8.61998 4.61563 8.61998H8.95227C9.12901 8.61998 9.27227 8.47671 9.27227 8.29998C9.27227 8.12324 9.12901 7.97998 8.95227 7.97998H4.6268L5.78838 5.34923H5.78837Z" fill="#122083"/>
<path d="M8.5655 5.43743C8.5655 5.75501 8.30807 6.01248 7.99046 6.01248C7.67294 6.01248 7.41541 5.75495 7.41541 5.43743C7.41541 5.2607 7.27214 5.11743 7.09541 5.11743C6.91868 5.11743 6.77541 5.2607 6.77541 5.43743C6.77541 6.1084 7.31947 6.65248 7.99046 6.65248C8.66154 6.65248 9.2055 6.10846 9.2055 5.43743C9.2055 5.2607 9.06224 5.11743 8.8855 5.11743C8.70877 5.11743 8.5655 5.2607 8.5655 5.43743ZM8.86983 8.62548C9.04657 8.62548 9.18983 8.48221 9.18983 8.30548C9.18983 8.12874 9.04657 7.98548 8.86983 7.98548H4.70135C4.52461 7.98548 4.38135 8.12874 4.38135 8.30548V9.96579C4.38133 10.1167 4.41686 10.2654 4.48507 10.4L5.43994 12.2828C5.48547 12.3725 5.50919 12.4717 5.50918 12.5723V15.6544C5.50918 15.8312 5.65244 15.9744 5.82918 15.9744C6.00591 15.9744 6.14918 15.8312 6.14918 15.6544V12.5723C6.14921 12.3711 6.10175 12.1727 6.01066 11.9932L5.05585 10.1105C5.03313 10.0656 5.02131 10.0161 5.02133 9.96578V8.62546H8.86982L8.86983 8.62548ZM9.50918 15.6544V12.8536C9.50916 12.7423 9.5324 12.6322 9.5774 12.5304C9.62239 12.4285 9.68815 12.3372 9.77047 12.2623L10.4965 11.6009C10.6282 11.481 10.7335 11.3349 10.8055 11.1719C10.8775 11.0089 10.9146 10.8327 10.9146 10.6546V9.00835C10.9146 8.83162 10.7713 8.68835 10.5946 8.68835C10.4179 8.68835 10.2746 8.83162 10.2746 9.00835V10.6546C10.2746 10.7437 10.2561 10.8317 10.2201 10.9132C10.1841 10.9947 10.1315 11.0678 10.0656 11.1277L9.3396 11.7891C9.1914 11.924 9.073 12.0884 8.992 12.2717C8.91099 12.455 8.86916 12.6532 8.86918 12.8536V15.6544C8.86918 15.8312 9.01244 15.9744 9.18918 15.9744C9.36591 15.9744 9.50918 15.8312 9.50918 15.6544Z" fill="#122083"/>
<path d="M9.308 9.124V7.90271C9.308 7.63759 9.52291 7.42271 9.788 7.42271C10.0598 7.42271 10.2747 7.63759 10.2747 7.90271V9.444C10.2747 9.62073 10.418 9.764 10.5947 9.764C10.7715 9.764 10.9147 9.62073 10.9147 9.444V7.90271C10.9147 7.28411 10.4132 6.78271 9.79472 6.78271C9.16947 6.78271 8.668 7.28411 8.668 7.90271V9.124C8.668 9.30073 8.81126 9.444 8.988 9.444C9.16473 9.444 9.308 9.30073 9.308 9.124Z" fill="#122083"/>
</svg>
