<svg width="15" height="15" viewBox="0 0 15 15" fill="none" xmlns="http://www.w3.org/2000/svg">
<path fill-rule="evenodd" clip-rule="evenodd" d="M7.16667 1C3.76091 1 1 3.76091 1 7.16667C1 10.5724 3.76091 13.3333 7.16667 13.3333C10.5724 13.3333 13.3333 10.5724 13.3333 7.16667C13.3333 3.76091 10.5724 1 7.16667 1ZM0 7.16667C0 3.20863 3.20863 0 7.16667 0C11.1247 0 14.3333 3.20863 14.3333 7.16667C14.3333 11.1247 11.1247 14.3333 7.16667 14.3333C3.20863 14.3333 0 11.1247 0 7.16667ZM7.16667 4C7.4428 4 7.66667 4.22386 7.66667 4.5V6.95953L9.18687 8.4798C9.38213 8.67507 9.38213 8.9916 9.18687 9.18687C8.9916 9.38213 8.67507 9.38213 8.4798 9.18687L6.81313 7.5202C6.71933 7.42647 6.66667 7.29927 6.66667 7.16667V4.5C6.66667 4.22386 6.89053 4 7.16667 4Z" fill="#122083"/>
</svg>
