<svg width="60" height="60" viewBox="0 0 60 60" fill="none" xmlns="http://www.w3.org/2000/svg">
<path d="M25.8348 47.7757C25.8339 48.7382 26.0761 49.6854 26.539 50.5294H9.00001C7.93964 50.5269 6.92341 50.1045 6.17361 49.3547C5.42381 48.6049 5.00146 47.5887 4.99896 46.5283V40.5283C5.00646 37.8782 6.06255 35.3387 7.93649 33.4648C9.81042 31.5908 12.3499 30.5348 15 30.5273H32.299C32.6652 31.7522 33.2622 32.8959 34.0579 33.8967C31.7587 34.2919 29.673 35.4862 28.1685 37.2692C26.664 39.0521 25.8375 41.3091 25.8348 43.642V47.7757ZM24 27.5273C21.9789 27.5273 20.0032 26.9279 18.3227 25.8051C16.6422 24.6822 15.3324 23.0862 14.5589 21.2189C13.7855 19.3517 13.5831 17.297 13.9774 15.3147C14.3717 13.3324 15.345 11.5116 16.7741 10.0824C18.2033 8.65328 20.0241 7.68001 22.0064 7.28571C23.9887 6.89141 26.0434 7.09378 27.9106 7.86723C29.7779 8.64068 31.3739 9.95047 32.4968 11.631C33.6196 13.3115 34.219 15.2872 34.219 17.3083C34.219 20.0185 33.1423 22.6178 31.2259 24.5342C29.3095 26.4506 26.7102 27.5273 24 27.5273ZM55.0011 47.7757C54.9986 48.5052 54.7076 49.2042 54.1918 49.7201C53.6759 50.2359 52.9769 50.5269 52.2474 50.5294H31.5884C30.8589 50.5269 30.1599 50.2359 29.644 49.7201C29.1282 49.2042 28.8372 48.5052 28.8347 47.7757V43.642C28.8406 41.818 29.5677 40.0703 30.8575 38.7806C32.1473 37.4908 33.8949 36.7636 35.719 36.7578H48.1137C49.9377 36.7636 51.6854 37.4908 52.9751 38.7806C54.2649 40.0703 54.9921 41.818 54.9979 43.642L55.0011 47.7757ZM48.9537 27.6536C48.9537 29.0451 48.5411 30.4054 47.768 31.5624C46.9949 32.7195 45.896 33.6213 44.6104 34.1538C43.3248 34.6863 41.9101 34.8256 40.5453 34.5542C39.1805 34.2827 37.9268 33.6126 36.9429 32.6286C35.9589 31.6447 35.2888 30.391 35.0173 29.0262C34.7458 27.6614 34.8852 26.2467 35.4177 24.9611C35.9502 23.6755 36.852 22.5766 38.009 21.8035C39.1661 21.0304 40.5264 20.6178 41.9179 20.6178C43.7839 20.6178 45.5735 21.3591 46.893 22.6785C48.2124 23.998 48.9537 25.7876 48.9537 27.6536Z" fill="#AEAEAE"/>
</svg>
