<svg width="58" height="58" viewBox="0 0 58 58" fill="none" xmlns="http://www.w3.org/2000/svg">
<path d="M29 36.25C33.0041 36.25 36.25 33.0041 36.25 29C36.25 24.9959 33.0041 21.75 29 21.75C24.9959 21.75 21.75 24.9959 21.75 29C21.75 33.0041 24.9959 36.25 29 36.25Z" stroke="#122083" stroke-width="2"/>
<path opacity="0.5" d="M33.2664 5.20117C32.378 4.83325 31.2521 4.83325 29 4.83325C26.7479 4.83325 25.622 4.83325 24.7336 5.20117C23.5494 5.69172 22.6085 6.63265 22.1179 7.81694C21.894 8.35757 21.8063 8.98629 21.772 9.90339C21.7216 11.2511 21.0305 12.4987 19.8624 13.173C18.6945 13.8473 17.2685 13.8221 16.0761 13.1919C15.2648 12.7631 14.6765 12.5246 14.0963 12.4482C12.8254 12.2809 11.54 12.6253 10.5231 13.4057C9.7603 13.9909 9.19729 14.9661 8.07127 16.9164C6.94525 18.8668 6.38224 19.8419 6.25674 20.7951C6.08943 22.066 6.43383 23.3513 7.2142 24.3684C7.57037 24.8326 8.07096 25.2227 8.84789 25.7108C9.99003 26.4286 10.7249 27.6512 10.7248 28.9999C10.7248 30.3487 9.98991 31.571 8.84787 32.2885C8.07083 32.7769 7.57017 33.1672 7.21396 33.6315C6.43359 34.6484 6.08919 35.9336 6.25652 37.2045C6.382 38.1576 6.94501 39.133 8.07103 41.0832C9.19707 43.0335 9.76008 44.0089 10.5228 44.5939C11.5398 45.3743 12.8251 45.7187 14.096 45.5514C14.6762 45.4751 15.2645 45.2365 16.0758 44.8078C17.2682 44.1776 18.6943 44.1524 19.8624 44.8267C21.0304 45.5012 21.7216 46.7486 21.772 48.0967C21.8063 49.0135 21.894 49.6424 22.1179 50.183C22.6085 51.3671 23.5494 52.3082 24.7336 52.7988C25.622 53.1666 26.7479 53.1666 29 53.1666C31.2521 53.1666 32.378 53.1666 33.2664 52.7988C34.4506 52.3082 35.3916 51.3671 35.882 50.183C36.106 49.6424 36.1937 49.0135 36.228 48.0964C36.2783 46.7486 36.9695 45.5012 38.1374 44.8267C39.3054 44.1522 40.7315 44.1776 41.9241 44.8078C42.7354 45.2365 43.3236 45.4748 43.9036 45.5512C45.1745 45.7187 46.4599 45.3743 47.4769 44.5939C48.2396 44.0086 48.8027 43.0335 49.9286 41.083C51.0548 39.1328 51.6178 38.1576 51.7433 37.2045C51.9105 35.9336 51.5661 34.6481 50.7858 33.6312C50.4296 33.167 49.9288 32.7767 49.1519 32.2885C48.01 31.571 47.2751 30.3484 47.2751 28.9997C47.2751 27.6509 48.01 26.4288 49.1519 25.7113C49.9291 25.2229 50.4298 24.8329 50.786 24.3684C51.5664 23.3515 51.9107 22.0662 51.7435 20.7953C51.6181 19.8421 51.055 18.8669 49.9288 16.9166C48.8029 14.9663 48.2398 13.9911 47.4771 13.4058C46.4602 12.6255 45.1748 12.2811 43.9038 12.4484C43.3238 12.5248 42.7356 12.7632 41.9241 13.192C40.7317 13.8223 39.3056 13.8475 38.1377 13.1731C36.9695 12.4987 36.2783 11.2511 36.228 9.90327C36.1937 8.98624 36.106 8.35755 35.882 7.81694C35.3916 6.63265 34.4506 5.69172 33.2664 5.20117Z" stroke="#122083" stroke-width="2"/>
</svg>
